<svg width="373" height="80" viewBox="0 0 373 80" fill="none" xmlns="http://www.w3.org/2000/svg">
<path d="M46.7647 56.6177L0 29.6148V53.0009L46.7647 80L93.533 53.0009V29.6148L46.7647 56.6177Z" fill="black"/>
<path d="M57.3619 0L33.9795 13.4995V36.8856L57.3619 23.3823V0Z" fill="black"/>
<path d="M155.07 29.3695L136.305 65.723L117.533 29.3695H128.428L136.305 44.6551L144.175 29.3695H155.07Z" fill="black"/>
<path d="M156.365 46.8949C156.365 41.6856 158.154 37.3098 161.659 33.8047C165.235 30.2996 169.671 28.5135 174.891 28.5135C180.112 28.5135 184.547 30.2996 188.052 33.8047C191.629 37.3098 193.418 41.6732 193.418 46.8949C193.418 52.1042 191.628 56.4801 188.126 59.9852C184.625 63.4903 180.186 65.1945 174.891 65.1945C169.596 65.1945 165.165 63.4754 161.659 59.9852C158.154 56.495 156.365 52.1191 156.365 46.8949ZM166.739 46.8949C166.739 49.4698 167.524 51.6168 169.027 53.2615C169.785 54.053 170.695 54.6829 171.703 55.1132C172.711 55.5435 173.795 55.7653 174.891 55.7653C175.987 55.7653 177.071 55.5435 178.079 55.1132C179.087 54.6829 179.997 54.053 180.755 53.2615C182.244 51.6168 183.047 49.4698 183.047 46.8949C183.047 44.3201 182.259 42.1768 180.755 40.5284C179.997 39.7379 179.086 39.1088 178.079 38.6791C177.071 38.2494 175.987 38.0279 174.891 38.0279C173.796 38.0279 172.711 38.2494 171.704 38.6791C170.696 39.1088 169.785 39.7379 169.027 40.5284C167.524 42.1768 166.739 44.3201 166.739 46.8949Z" fill="black"/>
<path d="M232.889 57.7675C229.101 62.7052 224.022 65.2094 217.511 65.2094C212.219 65.2094 207.784 63.4903 204.279 60.0001C200.774 56.5098 198.984 52.134 198.984 46.9098C198.984 41.6856 200.763 37.3098 204.279 33.7898C207.855 30.2847 212.29 28.4986 217.511 28.4986C223.092 28.4986 227.955 30.8577 232.175 35.5089L225.321 42.1768C223.088 39.4568 220.599 38.0838 217.879 38.0838C213.016 38.0838 209.369 41.7303 209.369 46.8801C209.369 52.0298 213.016 55.6801 217.879 55.6801C220.956 55.6801 223.676 54.1917 226.035 51.1033L232.889 57.7675Z" fill="black"/>
<path d="M241.712 33.6634C245.06 30.229 249.295 28.5136 254.229 28.5136C257.879 28.5136 260.882 29.5146 263.245 31.5871V14.2773H273.399V64.4206H263.386V61.9165C261.098 64.149 258.02 65.2095 254.229 65.2095C249.295 65.2095 245.075 63.5648 241.712 60.2011C238.348 56.8374 236.703 52.3871 236.703 46.895C236.703 41.4587 238.344 37.0271 241.712 33.6634ZM263.386 46.895C263.386 44.2494 262.597 42.0318 261.027 40.3164C260.314 39.4813 259.424 38.8165 258.421 38.3709C257.417 37.9253 256.327 37.7103 255.23 37.7415C254.124 37.7175 253.026 37.9354 252.013 38.3802C251 38.825 250.096 39.4858 249.366 40.3164C247.877 42.0318 247.077 44.2494 247.077 46.895C247.077 49.5406 247.862 51.762 249.366 53.4774C250.097 54.3074 251 54.9678 252.013 55.4125C253.026 55.8573 254.124 56.0756 255.23 56.0523C256.327 56.0828 257.417 55.8673 258.42 55.4218C259.423 54.9762 260.314 54.3119 261.027 53.4774C262.597 51.762 263.386 49.5443 263.386 46.895Z" fill="black"/>
<path d="M279.691 46.8949C279.691 41.6856 281.477 37.3098 284.982 33.8047C288.558 30.2996 292.993 28.5135 298.218 28.5135C303.442 28.5135 307.873 30.2996 311.379 33.8047C314.956 37.3098 316.744 41.6732 316.744 46.8949C316.744 52.1042 314.954 56.4801 311.449 59.9852C307.944 63.4903 303.509 65.1945 298.218 65.1945C292.926 65.1945 288.487 63.4754 284.982 59.9852C281.477 56.495 279.691 52.1191 279.691 46.8949ZM290.061 46.8949C290.061 49.4698 290.85 51.6168 292.35 53.2615C293.108 54.0531 294.019 54.683 295.027 55.1134C296.035 55.5437 297.12 55.7656 298.216 55.7656C299.312 55.7656 300.397 55.5437 301.405 55.1134C302.413 54.683 303.324 54.0531 304.082 53.2615C305.57 51.6168 306.37 49.4698 306.37 46.8949C306.37 44.3201 305.585 42.1768 304.082 40.5284C303.323 39.7378 302.412 39.1087 301.404 38.6789C300.396 38.2491 299.312 38.0276 298.216 38.0276C297.12 38.0276 296.035 38.2491 295.027 38.6789C294.019 39.1087 293.108 39.7378 292.35 40.5284C290.85 42.1768 290.065 44.3201 290.065 46.8949H290.061Z" fill="black"/>
<path d="M322.404 29.3695H339.553C341.593 29.3695 343.612 29.7712 345.496 30.5518C347.381 31.3324 349.092 32.4764 350.534 33.9187C351.976 35.3609 353.12 37.0731 353.9 38.9574C354.68 40.8417 355.081 42.8612 355.081 44.9006V64.4207H344.852V44.9527C344.825 43.3068 344.155 41.7369 342.985 40.5784C341.816 39.42 340.24 38.7651 338.593 38.7537H332.562V64.4281H322.404V29.3695Z" fill="black"/>
<path d="M362.482 64.4207V29.3695H372.711V64.4207H362.482Z" fill="black"/>
<path d="M372.711 14.281H362.5V24.4912H372.711V14.281Z" fill="black"/>
</svg>
